<svg width="249.000000" height="91.000000" viewBox="0 0 249 91" fill="none" xmlns="http://www.w3.org/2000/svg" xmlns:xlink="http://www.w3.org/1999/xlink">
	<desc>
			Created with Pixso.
	</desc>
	<defs>
		<filter id="filter_6_78_dd" x="0.000000" y="0.000000" width="249.000000" height="91.000000" filterUnits="userSpaceOnUse" color-interpolation-filters="sRGB">
			<feFlood flood-opacity="0" result="BackgroundImageFix"/>
			<feColorMatrix in="SourceAlpha" type="matrix" values="0 0 0 0 0 0 0 0 0 0 0 0 0 0 0 0 0 0 127 0" result="hardAlpha"/>
			<feOffset dx="0" dy="4"/>
			<feGaussianBlur stdDeviation="1.33333"/>
			<feComposite in2="hardAlpha" operator="out" k2="-1" k3="1"/>
			<feColorMatrix type="matrix" values="0 0 0 0 0 0 0 0 0 0 0 0 0 0 0 0 0 0 0.25 0"/>
			<feBlend mode="normal" in2="BackgroundImageFix" result="effect_dropShadow_1"/>
			<feBlend mode="normal" in="SourceGraphic" in2="effect_dropShadow_1" result="shape"/>
		</filter>
	</defs>
	<g filter="url(#filter_6_78_dd)">
		<rect id="Color=ЧБ" width="241.000000" height="82.999847" transform="translate(4.000000 0.000000)" fill="#FFFFFF" fill-opacity="0"/>
		<path id="&amp;" d="M159.15 82.3Q159.53 82.01 159.53 81.73Q159.53 81.44 158.87 81.06Q148.33 76.57 139.75 69.65Q138.87 68.94 138 68.2C141.69 64.96 144.67 61.41 146.96 57.53Q149.81 52.75 150.36 47.72Q150.49 46.54 150.49 45.34C150.49 44.83 150.42 44.16 150.29 43.34C150.23 42.45 150.04 41.59 149.72 40.77C149.47 39.94 149.06 39.24 148.48 38.67C147.98 38.04 147.28 37.72 146.39 37.72C146.07 37.72 145.72 37.81 145.34 38C144.96 38.13 144.77 38.26 144.77 38.39C145.78 39.85 146.45 41.24 146.77 42.58C147.15 43.85 147.34 45.12 147.34 46.39C147.34 50.2 146.36 53.85 144.39 57.34C142.42 60.83 139.82 64.04 136.58 66.96Q127.62 59.25 121.34 50.39Q115.14 41.43 112 32.76Q114.86 29.72 117.43 26.86Q120.1 23.91 122 21.24Q124 18.48 125.15 15.9Q126.38 13.33 126.38 10.95C126.38 8.41 125.69 6.6 124.29 5.52C122.89 4.38 121.34 3.81 119.62 3.81C118.16 3.81 116.6 4.22 114.95 5.04Q112.57 6.19 110.57 8.28Q108.57 10.38 107.24 13.33C106.41 15.3 106 17.46 106 19.81Q106 25.81 108.76 33.24L101.14 40.86C98.6 43.47 96.28 46.13 94.19 48.86Q91.04 52.96 89.04 57.25Q87.45 60.57 87.13 64.02Q87.04 64.91 87.04 65.82Q87.04 69.92 88.47 72.96C89.36 75 90.6 76.71 92.19 78.11Q92.26 78.17 92.33 78.23Q94.66 80.14 97.81 81.06Q101.04 82.11 104.66 82.11Q108.38 82.11 112.38 81.25Q116.48 80.4 120.48 78.78Q124.57 77.16 128.48 74.87C131.08 73.35 133.59 71.66 136 69.82C139.5 72.74 143.09 75.31 146.77 77.54Q152.3 80.78 158.01 82.59Q158.77 82.59 159.15 82.3ZM121.34 7.43C122.35 8.38 122.86 9.97 122.86 12.19C122.86 13.65 122.54 15.14 121.91 16.67Q121.05 18.86 119.43 21.24Q117.91 23.52 115.81 25.91C114.41 27.49 112.92 29.11 111.33 30.76Q109.33 24.67 109.33 19.24C109.33 17.27 109.62 15.46 110.19 13.81Q111.05 11.33 112.29 9.62Q113.62 7.81 115.14 6.85Q116.76 5.9 118.19 5.9C119.33 5.9 120.38 6.41 121.34 7.43ZM126.77 61.15C129.31 63.82 131.94 66.33 134.67 68.68C130.67 71.98 126.32 74.62 121.62 76.58Q114.57 79.54 108.28 79.54Q105.84 79.54 103.52 79.02Q102.85 78.87 102.19 78.68Q100.14 78.09 98.41 76.99Q97.65 76.5 96.95 75.92C95.42 74.65 94.22 73.03 93.33 71.06Q91.9 68.01 91.9 63.82L91.9 63.82Q91.9 60.3 93.52 56.77Q95.04 53.15 97.52 49.63Q100 46.01 103.14 42.48Q106.38 38.86 109.62 35.34Q111.43 39.62 114 44.1Q116.67 48.48 119.81 52.77Q123.05 57.06 126.77 61.15Z" fill="#D0D0D0" fill-opacity="1.000000" fill-rule="evenodd"/>
		<path id="Wake Bake" d="M43.16 26.32C43.28 26.22 43.35 26.09 43.35 25.93C43.35 25.74 43.24 25.55 43.01 25.36C42.79 25.13 42.56 25.02 42.34 25.02C41.57 25.02 40.84 25.44 40.13 26.27C39.46 27.07 38.85 28.06 38.31 29.24C37.8 30.4 37.38 31.63 37.06 32.94C36.77 34.25 36.63 35.4 36.63 36.4C36.63 37.77 36.68 39.28 36.77 40.91C36.9 42.51 37.03 44.17 37.16 45.9C37.28 47.6 37.4 49.31 37.49 51.04C37.62 52.76 37.68 54.44 37.68 56.08C37.68 57.9 37.59 59.61 37.4 61.21C37.2 62.78 36.85 64.17 36.34 65.39C35.83 66.57 35.12 67.5 34.23 68.17C33.33 68.87 32.18 69.23 30.77 69.23Q29.5 69.23 28.4 68.8Q28.17 68.71 27.94 68.6C27.11 68.22 26.34 67.68 25.64 66.97C24.96 66.27 24.36 65.45 23.81 64.52C23.27 63.56 22.79 62.52 22.37 61.4C22.98 59.2 23.43 56.94 23.72 54.64C24 52.3 24.15 50.08 24.15 47.96Q24.15 46 23.96 44.32C23.86 43.16 23.7 42.17 23.48 41.34C23.28 40.51 23.03 39.85 22.71 39.37C22.42 38.89 22.08 38.65 21.7 38.65C21.22 38.65 20.8 38.99 20.45 39.66C20.1 40.33 19.81 41.21 19.59 42.3C19.36 43.39 19.19 44.62 19.06 46C18.96 47.37 18.92 48.76 18.92 50.17Q18.92 53.05 19.44 56.46C19.79 58.73 20.34 60.88 21.08 62.89C20.72 63.98 20.32 64.99 19.87 65.92C19.46 66.84 18.98 67.64 18.44 68.32C17.89 69.02 17.3 69.56 16.66 69.95C16.02 70.33 15.32 70.52 14.55 70.52C13.52 70.52 12.63 70.24 11.86 69.66Q10.71 68.84 9.84 67.45C9.3 66.52 8.84 65.45 8.45 64.24C8.07 63.02 7.76 61.77 7.54 60.49Q7.2 58.52 7.06 56.56Q6.92 54.54 6.92 52.86Q6.92 50.7 7.01 48.44Q7.11 46.14 7.25 44.12C7.38 42.78 7.51 41.58 7.64 40.52C7.8 39.43 7.94 38.6 8.07 38.03C8.39 36.75 8.63 35.88 8.79 35.43C8.95 34.96 9.03 34.62 9.03 34.43C9.03 34.27 8.95 34.17 8.79 34.14C8.63 34.08 8.43 34.04 8.21 34.04C7.92 34.04 7.59 34.08 7.2 34.14C6.85 34.2 6.66 34.33 6.63 34.52C6.56 35.04 6.44 35.82 6.24 36.88Q5.96 38.46 5.67 40.67Q5.38 42.83 5.14 45.56Q4.95 48.25 5.04 51.28Q5.09 52.96 5.14 55.16Q5.24 57.32 5.48 59.63Q5.68 61.54 6.05 63.41Q6.12 63.75 6.2 64.09Q6.72 66.25 7.64 67.93C8.24 69.08 9.01 70.01 9.94 70.72C10.9 71.42 12.07 71.77 13.44 71.77C14.34 71.77 15.19 71.58 15.99 71.19C16.79 70.81 17.52 70.27 18.2 69.56C18.87 68.86 19.48 68.03 20.02 67.07C20.6 66.11 21.09 65.07 21.51 63.95C21.92 64.91 22.39 65.79 22.9 66.59C23.44 67.39 24.04 68.09 24.68 68.7C25.35 69.31 26.07 69.77 26.84 70.09C27.64 70.44 28.48 70.62 29.38 70.62C31.33 70.62 32.91 70.16 34.13 69.23C35.35 68.3 36.29 67.07 36.96 65.53C37.67 64 38.13 62.25 38.36 60.3C38.61 58.35 38.74 56.33 38.74 54.25C38.74 52.78 38.69 51.34 38.59 49.93C38.53 48.49 38.43 47.13 38.31 45.85C38.21 44.57 38.12 43.4 38.02 42.35C37.96 41.26 37.92 40.35 37.92 39.61C37.92 38.56 37.99 37.4 38.12 36.16C38.24 34.88 38.48 33.63 38.84 32.41C39.22 31.2 39.72 30.08 40.32 29.05C40.93 28.03 41.72 27.23 42.68 26.65Q42.96 26.46 43.16 26.32ZM168.46 57.95C169.35 56.12 169.8 54.43 169.8 52.86C169.8 51.8 169.58 50.83 169.13 49.93C168.71 49 168.04 48.2 167.11 47.53Q165.72 46.48 163.51 45.85C162.04 45.4 160.28 45.13 158.23 45.04Q160.39 42.88 161.64 40.38C162.51 38.68 162.94 37.05 162.94 35.48C162.94 34.52 162.75 33.61 162.36 32.75C161.98 31.88 161.35 31.15 160.49 30.54C159.63 29.9 158.51 29.4 157.13 29.05C155.79 28.67 154.14 28.48 152.19 28.48Q150.17 28.48 147 28.96C144.92 29.24 142.67 29.71 140.23 30.35C137.83 30.96 135.4 31.74 132.94 32.7C130.47 33.66 128.22 34.81 126.17 36.16C124.09 37.47 122.35 38.97 120.94 40.67Q119.54 42.35 118.88 44.28Q118.54 45.27 118.39 46.33C118.39 46.97 118.44 47.44 118.54 47.72C118.6 47.98 118.7 48.11 118.83 48.11Q118.97 48.11 119.11 47.87C119.21 47.68 119.26 47.45 119.26 47.2C119.26 45.18 119.88 43.34 121.13 41.68C122.38 40.01 123.99 38.52 125.98 37.21C127.96 35.9 130.17 34.75 132.6 33.75C135.03 32.76 137.42 31.95 139.75 31.31C142.12 30.64 144.31 30.14 146.33 29.82C148.38 29.5 149.98 29.34 151.13 29.34Q153.67 29.34 155.45 29.92C156.67 30.3 157.64 30.81 158.38 31.45C159.15 32.09 159.69 32.86 160.01 33.75C160.36 34.62 160.54 35.53 160.54 36.49C160.54 37.93 160.22 39.4 159.58 40.91C158.94 42.38 158.09 43.74 157.03 44.99L156.46 44.99C154.89 44.99 153.45 45.15 152.14 45.47C150.83 45.76 149.69 46.12 148.73 46.57C147.8 47.02 147.07 47.5 146.52 48.01C146.01 48.49 145.75 48.92 145.75 49.31C145.75 49.92 146.38 50.22 147.63 50.22C149.39 50.22 151.11 49.8 152.81 48.97C154.54 48.14 156.12 47.05 157.56 45.71C161.11 45.9 163.66 46.64 165.19 47.92Q166.56 49 167.13 50.4Q167.55 51.43 167.55 52.62C167.55 54.16 167.11 55.82 166.25 57.61C165.39 59.37 164.2 61.15 162.7 62.94C161.19 64.7 159.43 66.4 157.42 68.03C155.43 69.69 153.31 71.15 151.03 72.4C148.79 73.68 146.47 74.7 144.07 75.47C141.71 76.24 139.39 76.62 137.11 76.62C136.83 76.62 136.49 76.59 136.11 76.52C135.72 76.49 135.35 76.41 135 76.28C134.65 76.16 134.35 75.98 134.09 75.76C133.87 75.56 133.75 75.29 133.75 74.94C133.75 74.43 134.19 73.87 135.05 73.26C135.91 72.68 136.95 72.16 138.17 71.68C139.39 71.19 140.63 70.8 141.91 70.48C143.19 70.16 144.25 70 145.08 70L145.71 70C145.87 70 145.95 69.92 145.95 69.76C145.95 69.66 145.9 69.56 145.8 69.47Q145.66 69.32 145.37 69.32Q144.99 69.32 143.88 69.51Q142.78 69.76 141.29 70.14C140.33 70.4 139.32 70.7 138.27 71.05C137.21 71.4 136.23 71.8 135.34 72.25C134.44 72.7 133.71 73.18 133.13 73.69C132.55 74.24 132.27 74.8 132.27 75.37C132.27 75.79 132.43 76.11 132.75 76.33C133.07 76.59 133.45 76.76 133.9 76.86C134.35 76.99 134.83 77.07 135.34 77.1C135.88 77.13 136.38 77.15 136.83 77.15C139.51 77.15 142.2 76.76 144.89 76C147.58 75.26 150.14 74.25 152.57 72.97C155 71.69 157.27 70.22 159.39 68.56Q162.55 66.06 164.86 63.37Q167.16 60.68 168.46 57.95ZM94.35 59.78C94.18 60.1 93.98 60.4 93.75 60.68Q91.11 64.43 87.75 66.59C85.51 68 83.29 68.7 81.08 68.7C79.71 68.7 78.39 68.38 77.15 67.74C75.9 67.13 74.79 66.14 73.83 64.76C73.71 64.6 73.64 64.46 73.64 64.33C73.64 64.04 73.83 63.9 74.22 63.9C74.25 63.9 74.36 63.93 74.55 64C74.81 64 75.1 64.09 75.42 64.28C75.77 64.44 76.27 64.52 76.91 64.52C77.9 64.52 78.83 64.35 79.69 64C80.55 63.64 81.29 63.2 81.9 62.65C82.54 62.08 83.03 61.44 83.39 60.73C83.74 60 83.91 59.24 83.91 58.48C83.91 57.52 83.66 56.68 83.15 55.98C82.67 55.28 81.83 54.92 80.65 54.92C79.43 54.92 78.31 55.36 77.29 56.22Q75.75 57.47 74.51 59.29C73.71 60.48 73.02 61.74 72.44 63.08Q71.58 65.05 71.15 66.54C70.99 67.08 70.84 67.42 70.71 67.55C70.59 67.68 70.44 67.74 70.28 67.74C69.93 67.74 69.77 67.4 69.8 66.73C69.8 66.44 69.82 66.09 69.85 65.68C69.88 65.26 69.91 64.81 69.95 64.33C69.95 63.85 69.96 63.37 69.99 62.89C70.03 62.38 70.04 61.92 70.04 61.5C70.04 61.08 70.04 60.64 70.03 60.18C69.93 60.35 69.82 60.52 69.71 60.68C68.08 63.12 66.43 64.92 64.77 66.11C63.1 67.29 61.55 67.88 60.11 67.88C58.29 67.88 56.89 67.02 55.93 65.29C54.81 66.41 53.55 67.26 52.14 67.83C50.77 68.41 49.41 68.7 48.06 68.7C47.26 68.7 46.49 68.59 45.76 68.36C45.05 68.14 44.45 67.8 43.93 67.36C43.39 66.87 42.96 66.28 42.64 65.58C42.32 64.84 42.16 64 42.16 63.04C42.16 61.88 42.43 60.72 42.97 59.53C43.49 58.32 44.21 57.23 45.13 56.27C46.09 55.28 47.21 54.46 48.49 53.82Q49.01 53.56 49.54 53.37Q51.02 52.86 52.67 52.86C53.89 52.86 54.83 53.04 55.5 53.39C56.17 53.71 56.51 54.01 56.51 54.3C56.51 54.43 56.45 54.52 56.32 54.59C56.19 54.65 56.08 54.68 55.98 54.68C55.95 54.65 55.92 54.64 55.89 54.64L55.84 54.64C55.45 54.28 55.02 54.01 54.54 53.82C54.06 53.6 53.36 53.48 52.43 53.48C51.18 53.48 50.05 53.76 49.02 54.3C48.03 54.81 47.18 55.5 46.48 56.36C45.77 57.2 45.23 58.12 44.85 59.15C44.46 60.17 44.27 61.18 44.27 62.17C44.27 64.09 44.72 65.48 45.61 66.35C46.51 67.21 47.63 67.64 48.97 67.64C50.06 67.64 51.2 67.37 52.38 66.83C53.57 66.28 54.62 65.51 55.55 64.52C55.04 63.37 54.78 61.87 54.78 60.01Q54.78 58.19 55.45 56.84C55.9 55.95 56.54 55.5 57.37 55.5C58.53 55.5 59.1 56.17 59.1 57.52Q59.1 59.53 58.53 61.16C58.14 62.22 57.63 63.18 56.99 64.04C57.89 65.71 59.13 66.54 60.73 66.54C61.95 66.54 63.25 66.03 64.62 65C66.03 63.98 67.41 62.49 68.75 60.54Q69.23 59.82 69.61 59.05L69.61 59.05L70 58.28C69.98 57.73 69.97 57.15 69.95 56.56Q69.85 53.72 69.71 50.75C69.61 48.73 69.53 46.73 69.47 44.75C69.4 42.76 69.37 40.94 69.37 39.28Q69.37 37.31 69.66 35.48Q69.95 33.61 70.57 32.22C70.99 31.26 71.51 30.51 72.15 29.96C72.79 29.39 73.55 29.1 74.41 29.1C75.31 29.1 76.06 29.26 76.67 29.58C77.31 29.87 77.82 30.3 78.2 30.88C78.59 31.42 78.86 32.09 79.02 32.89C79.21 33.66 79.31 34.51 79.31 35.43C79.31 37.04 79.08 38.8 78.63 40.72C78.19 42.6 77.59 44.51 76.86 46.43Q75.75 49.31 74.31 52Q72.92 54.64 71.43 56.6C71.5 57.56 71.53 58.56 71.53 59.58C71.56 60.6 71.61 61.69 71.67 62.84C72.47 61.12 73.35 59.63 74.31 58.38C74.73 57.84 75.19 57.31 75.71 56.8C76.25 56.25 76.81 55.77 77.39 55.36C77.99 54.94 78.63 54.6 79.31 54.35C80.01 54.09 80.75 53.96 81.51 53.96C82.73 53.96 83.79 54.27 84.68 54.88C85.58 55.48 86.03 56.46 86.03 57.8C86.03 59.08 85.71 60.17 85.07 61.07C84.46 61.96 83.69 62.72 82.76 63.32C81.83 63.9 80.84 64.33 79.79 64.62C78.73 64.91 77.77 65.08 76.91 65.15C76.84 65.15 76.81 65.16 76.81 65.19C76.81 65.26 76.86 65.36 76.95 65.48Q77.91 66.59 79.11 67.07Q79.69 67.3 80.29 67.42Q80.94 67.55 81.61 67.55C82.67 67.55 83.74 67.36 84.83 66.97Q85.14 66.85 85.44 66.72Q86.74 66.17 87.95 65.39C88.94 64.72 89.85 63.96 90.68 63.13C91.55 62.27 92.25 61.4 92.79 60.54C93.11 60.06 93.4 59.56 93.66 59.05L94.43 57.52L94.44 57.52C94.51 57.04 94.62 56.56 94.76 56.08C95.05 55.12 95.43 54.25 95.91 53.48C96.42 52.72 97 52.09 97.64 51.61C98.31 51.13 99.02 50.89 99.75 50.89C100.94 50.89 101.8 51.24 102.35 51.95C102.89 52.62 103.16 53.48 103.16 54.54C103.16 55.98 102.71 57.55 101.82 59.24C100.95 60.91 99.7 62.46 98.07 63.9Q98.86 64.8 99.86 65.3Q101.15 65.96 102.78 65.96C104.22 65.96 105.72 65.53 107.29 64.67Q109.64 63.32 111.71 60.54C112.06 60.09 112.35 59.61 112.57 59.1C112.83 58.56 113.08 58.03 113.34 57.52L114.25 57.76C114.03 58.24 113.79 58.73 113.53 59.24C113.31 59.72 113.02 60.2 112.67 60.68C111.1 62.92 109.31 64.62 107.29 65.77C105.31 66.89 103.4 67.45 101.58 67.45C100.55 67.45 99.59 67.28 98.7 66.92C97.83 66.57 97.08 66.04 96.44 65.34C95.8 64.64 95.29 63.76 94.9 62.7C94.6 61.85 94.41 60.88 94.35 59.78ZM224.48 59.78C224.3 60.1 224.1 60.4 223.88 60.68Q221.24 64.43 217.88 66.59C215.64 68 213.42 68.7 211.21 68.7C209.83 68.7 208.52 68.38 207.27 67.74Q205.4 66.83 203.96 64.76C203.83 64.6 203.77 64.46 203.77 64.33C203.77 64.04 203.96 63.9 204.34 63.9C204.38 63.9 204.49 63.93 204.68 64C204.94 64 205.22 64.09 205.54 64.28C205.9 64.44 206.39 64.52 207.03 64.52C208.02 64.52 208.95 64.35 209.82 64C210.68 63.64 211.42 63.2 212.02 62.65C212.66 62.08 213.16 61.44 213.51 60.73C213.86 60 214.04 59.24 214.04 58.48Q214.04 57.4 213.61 56.53Q213.46 56.24 213.27 55.98C212.79 55.28 211.96 54.92 210.78 54.92C209.56 54.92 208.44 55.36 207.42 56.22C206.39 57.05 205.46 58.08 204.63 59.29Q203.43 61.07 202.57 63.08C201.99 64.4 201.56 65.55 201.27 66.54C201.11 67.08 200.97 67.42 200.84 67.55C200.71 67.68 200.57 67.74 200.41 67.74C200.06 67.74 199.9 67.4 199.93 66.73C199.93 66.44 199.94 66.09 199.98 65.68C200.01 65.26 200.04 64.81 200.07 64.33C200.07 63.85 200.09 63.37 200.12 62.89C200.15 62.38 200.17 61.92 200.17 61.5C200.17 61.08 200.16 60.64 200.16 60.18C200.06 60.35 199.95 60.52 199.84 60.68C198.2 63.12 196.56 64.92 194.89 66.11C193.23 67.29 191.68 67.88 190.24 67.88C188.41 67.88 187.02 67.02 186.06 65.29C184.94 66.41 183.68 67.26 182.27 67.83C180.89 68.41 179.53 68.7 178.19 68.7C177.39 68.7 176.62 68.59 175.88 68.36C175.18 68.14 174.57 67.8 174.06 67.36C173.52 66.87 173.08 66.28 172.76 65.58C172.44 64.84 172.28 64 172.28 63.04Q172.28 61.31 173.1 59.53C173.61 58.32 174.33 57.23 175.26 56.27C176.22 55.28 177.34 54.46 178.62 53.82C179.9 53.18 181.29 52.86 182.8 52.86C184.01 52.86 184.96 53.04 185.63 53.39C186.3 53.71 186.64 54.01 186.64 54.3C186.64 54.43 186.57 54.52 186.44 54.59C186.32 54.65 186.2 54.68 186.11 54.68Q186.06 54.64 186.01 54.64L185.96 54.64C185.58 54.28 185.15 54.01 184.67 53.82C184.19 53.6 183.48 53.48 182.56 53.48Q181.04 53.48 179.75 54.02Q179.44 54.14 179.15 54.3C178.16 54.81 177.31 55.5 176.6 56.36C175.9 57.2 175.36 58.12 174.97 59.15C174.59 60.17 174.4 61.18 174.4 62.17C174.4 64.09 174.84 65.48 175.74 66.35C176.64 67.21 177.76 67.64 179.1 67.64C180.19 67.64 181.32 67.37 182.51 66.83C183.69 66.28 184.75 65.51 185.68 64.52Q184.91 62.8 184.91 60.01Q184.91 58.19 185.58 56.84Q186.03 55.95 186.73 55.65Q187.08 55.5 187.5 55.5C188.65 55.5 189.23 56.17 189.23 57.52C189.23 58.86 189.04 60.08 188.65 61.16C188.27 62.22 187.76 63.18 187.12 64.04Q188 65.68 189.33 66.24Q190.03 66.54 190.86 66.54C192.08 66.54 193.37 66.03 194.75 65C196.16 63.98 197.53 62.49 198.88 60.54C199.2 60.06 199.48 59.56 199.74 59.05L200.12 58.28C200.11 57.73 200.09 57.15 200.07 56.56C200.01 54.67 199.93 52.73 199.83 50.75Q199.69 47.72 199.59 44.75Q199.5 41.77 199.5 39.28C199.5 37.96 199.59 36.7 199.78 35.48Q200.07 33.61 200.7 32.22C201.11 31.26 201.64 30.51 202.28 29.96C202.92 29.39 203.67 29.1 204.54 29.1Q205.88 29.1 206.79 29.58C207.43 29.87 207.94 30.3 208.33 30.88C208.71 31.42 208.98 32.09 209.14 32.89C209.34 33.66 209.43 34.51 209.43 35.43Q209.43 37.84 208.76 40.72C208.31 42.6 207.72 44.51 206.98 46.43C206.25 48.35 205.4 50.2 204.44 52C203.51 53.76 202.55 55.29 201.56 56.6Q201.66 58.04 201.66 59.58C201.69 60.6 201.74 61.69 201.8 62.84C202.6 61.12 203.48 59.63 204.44 58.38C204.86 57.84 205.32 57.31 205.83 56.8C206.38 56.25 206.94 55.77 207.51 55.36C208.12 54.94 208.76 54.6 209.43 54.35C210.14 54.09 210.87 53.96 211.64 53.96C212.86 53.96 213.91 54.27 214.81 54.88C215.7 55.48 216.15 56.46 216.15 57.8C216.15 59.08 215.83 60.17 215.19 61.07C214.58 61.96 213.82 62.72 212.89 63.32C211.96 63.9 210.97 64.33 209.91 64.62C208.86 64.91 207.9 65.08 207.03 65.15C206.97 65.15 206.94 65.16 206.94 65.19C206.94 65.26 206.98 65.36 207.08 65.48C207.72 66.22 208.44 66.75 209.24 67.07Q209.82 67.3 210.42 67.42Q211.06 67.55 211.74 67.55C212.79 67.55 213.86 67.36 214.95 66.97C216.04 66.56 217.08 66.03 218.07 65.39C219.06 64.72 219.98 63.96 220.81 63.13C221.67 62.27 222.38 61.4 222.92 60.54C223.24 60.06 223.53 59.56 223.78 59.05L224.55 57.52L224.56 57.52C224.63 57.04 224.74 56.56 224.89 56.08C225.17 55.12 225.56 54.25 226.04 53.48Q226.81 52.33 227.77 51.61C228.44 51.13 229.14 50.89 229.88 50.89Q231.36 50.89 232.18 51.63Q232.34 51.78 232.47 51.95C233.01 52.62 233.29 53.48 233.29 54.54Q233.29 56.7 231.94 59.24C231.08 60.91 229.83 62.46 228.2 63.9C229.41 65.28 230.98 65.96 232.9 65.96C234.34 65.96 235.85 65.53 237.41 64.67Q239.77 63.32 241.83 60.54C242.18 60.09 242.47 59.61 242.69 59.1C242.95 58.56 243.21 58.03 243.46 57.52L244.37 57.76C244.15 58.24 243.91 58.73 243.65 59.24C243.43 59.72 243.14 60.2 242.79 60.68C241.22 62.92 239.43 64.62 237.41 65.77C235.43 66.89 233.53 67.45 231.7 67.45C230.68 67.45 229.72 67.28 228.82 66.92C227.96 66.57 227.21 66.04 226.57 65.34C225.93 64.64 225.41 63.76 225.03 62.7Q224.57 61.43 224.48 59.78ZM77.05 31.93C77.66 33.02 77.96 34.48 77.96 36.3C77.96 37.74 77.79 39.31 77.43 41C77.11 42.7 76.65 44.41 76.04 46.14C75.47 47.84 74.78 49.5 73.98 51.13C73.18 52.73 72.31 54.16 71.39 55.4C71.32 53.9 71.26 52.43 71.19 50.99C71.13 49.55 71.07 48.06 71 46.52C70.97 44.99 70.94 43.36 70.91 41.63C70.87 39.9 70.86 37.98 70.86 35.87C70.86 35.1 70.94 34.38 71.1 33.71C71.26 33.04 71.48 32.44 71.77 31.93C72.06 31.42 72.39 31.02 72.78 30.73C73.19 30.41 73.64 30.25 74.12 30.25C75.5 30.25 76.47 30.81 77.05 31.93ZM207.18 31.93C207.78 33.02 208.09 34.48 208.09 36.3C208.09 37.74 207.91 39.31 207.56 41C207.24 42.7 206.78 44.41 206.17 46.14C205.59 47.84 204.9 49.5 204.1 51.13C203.3 52.73 202.44 54.16 201.51 55.4C201.45 53.9 201.38 52.43 201.32 50.99C201.26 49.55 201.19 48.06 201.13 46.52Q201.08 44.22 201.03 41.63C201 39.9 200.98 37.98 200.98 35.87C200.98 35.1 201.06 34.38 201.22 33.71C201.38 33.04 201.61 32.44 201.9 31.93C202.18 31.42 202.52 31.02 202.9 30.73C203.32 30.41 203.77 30.25 204.25 30.25C205.62 30.25 206.6 30.81 207.18 31.93ZM144.27 66.44C144.33 66.25 144.36 65.93 144.36 65.48C144.36 63.18 144.33 60.73 144.27 58.14C144.23 55.55 144.19 52.91 144.12 50.22L144.03 42.16C143.99 39.43 143.98 36.8 143.98 34.24C143.98 34.01 143.9 33.82 143.74 33.66C143.61 33.5 143.42 33.42 143.16 33.42C142.94 33.48 142.75 33.56 142.59 33.66C142.43 33.75 142.35 33.93 142.35 34.19C142.35 34.41 142.36 35.31 142.39 36.88Q142.44 39.23 142.49 43.26C142.55 45.92 142.6 49.07 142.63 52.72C142.7 56.36 142.75 60.4 142.78 64.81C142.78 66.16 143.1 66.8 143.74 66.73C144.03 66.73 144.2 66.64 144.27 66.44ZM22.85 42.78C23.11 44.09 23.24 45.74 23.24 47.72C23.24 49.55 23.12 51.55 22.9 53.72C22.68 55.87 22.34 57.96 21.89 60.01C21.25 58.06 20.8 56.04 20.55 53.96C20.29 51.85 20.16 49.88 20.16 48.06Q20.16 46.52 20.26 45.23C20.36 44.33 20.47 43.56 20.6 42.92C20.76 42.25 20.95 41.74 21.17 41.39C21.4 41 21.64 40.81 21.89 40.81Q21.92 40.81 21.95 40.82Q22.53 40.9 22.85 42.78ZM152.43 46.04C153.51 45.79 154.65 45.66 155.83 45.66L156.41 45.66C155.29 46.84 154.03 47.8 152.62 48.54C151.24 49.28 149.79 49.64 148.25 49.64C147.35 49.64 146.91 49.45 146.91 49.07C146.91 48.78 147.15 48.44 147.63 48.06C148.14 47.68 148.79 47.31 149.59 46.96Q150.84 46.43 152.43 46.04ZM101.43 52.67C101.88 53.21 102.11 53.92 102.11 54.78C102.11 55.45 101.99 56.17 101.77 56.94C101.55 57.71 101.23 58.48 100.81 59.24C100.43 60.01 99.96 60.75 99.42 61.45C98.87 62.16 98.26 62.78 97.59 63.32C97.08 62.62 96.68 61.8 96.39 60.88C96.14 59.92 96.01 58.83 96.01 57.61C96.01 56.84 96.09 56.11 96.25 55.4C96.41 54.7 96.63 54.09 96.92 53.58C97.21 53.04 97.56 52.6 97.98 52.28C98.39 51.96 98.86 51.8 99.37 51.8C100.33 51.8 101.02 52.09 101.43 52.67ZM231.56 52.67C232.01 53.21 232.23 53.92 232.23 54.78C232.23 55.45 232.12 56.17 231.89 56.94C231.67 57.71 231.35 58.48 230.93 59.24C230.55 60.01 230.09 60.75 229.54 61.45C229 62.16 228.39 62.78 227.72 63.32C227.21 62.62 226.81 61.8 226.52 60.88C226.26 59.92 226.13 58.83 226.13 57.61Q226.13 56.46 226.37 55.4C226.53 54.7 226.76 54.09 227.05 53.58C227.33 53.04 227.69 52.6 228.1 52.28C228.52 51.96 228.98 51.8 229.49 51.8C230.45 51.8 231.14 52.09 231.56 52.67ZM58.09 56.65C58.25 56.94 58.33 57.32 58.33 57.8C58.33 58.83 58.17 59.8 57.85 60.73C57.57 61.66 57.15 62.49 56.61 63.23Q55.84 61.5 55.69 58.96C55.66 58.16 55.79 57.5 56.08 56.99C56.37 56.44 56.78 56.17 57.33 56.17C57.68 56.17 57.93 56.33 58.09 56.65ZM188.22 56.65C188.38 56.94 188.46 57.32 188.46 57.8C188.46 58.83 188.3 59.8 187.98 60.73C187.69 61.66 187.28 62.49 186.73 63.23Q185.96 61.5 185.82 58.96C185.79 58.16 185.92 57.5 186.2 56.99Q186.47 56.49 186.88 56.29Q187.14 56.17 187.45 56.17C187.8 56.17 188.06 56.33 188.22 56.65Z" fill="#000000" fill-opacity="1.000000" fill-rule="evenodd"/>
	</g>
</svg>
