<svg width="241.000000" height="83.000000" viewBox="0 0 241 83" fill="none" xmlns="http://www.w3.org/2000/svg" xmlns:xlink="http://www.w3.org/1999/xlink">
	<desc>
			Created with Pixso.
	</desc>
	<defs/>
	<rect id="Color=Color Dark" width="241.000000" height="82.999847" fill="#FFFFFF" fill-opacity="0"/>
	<path id="&amp;" d="M155.15 82.3Q155.53 82.01 155.53 81.73Q155.53 81.44 154.87 81.06Q144.33 76.57 135.75 69.65Q134.87 68.94 134 68.2C137.69 64.96 140.67 61.41 142.96 57.53Q145.81 52.75 146.36 47.72Q146.49 46.54 146.49 45.34C146.49 44.83 146.42 44.16 146.29 43.34C146.23 42.45 146.04 41.59 145.72 40.77C145.47 39.94 145.06 39.24 144.48 38.67C143.98 38.04 143.28 37.72 142.39 37.72C142.07 37.72 141.72 37.81 141.34 38C140.96 38.13 140.77 38.26 140.77 38.39C141.78 39.85 142.45 41.24 142.77 42.58C143.15 43.85 143.34 45.12 143.34 46.39C143.34 50.2 142.36 53.85 140.39 57.34C138.42 60.83 135.82 64.04 132.58 66.96Q123.62 59.25 117.34 50.39Q111.14 41.43 108 32.76Q110.86 29.72 113.43 26.86Q116.1 23.91 118 21.24Q120 18.48 121.15 15.9Q122.38 13.33 122.38 10.95C122.38 8.41 121.69 6.6 120.29 5.52C118.89 4.38 117.34 3.81 115.62 3.81C114.16 3.81 112.6 4.22 110.95 5.04Q108.57 6.19 106.57 8.28Q104.57 10.38 103.24 13.33C102.41 15.3 102 17.46 102 19.81Q102 25.81 104.76 33.24L97.14 40.86C94.6 43.47 92.28 46.13 90.19 48.86Q87.04 52.96 85.04 57.25Q83.45 60.57 83.13 64.02Q83.04 64.91 83.04 65.82Q83.04 69.92 84.47 72.96C85.36 75 86.6 76.71 88.19 78.11Q88.26 78.17 88.33 78.23Q90.66 80.14 93.81 81.06Q97.04 82.11 100.66 82.11Q104.38 82.11 108.38 81.25Q112.48 80.4 116.48 78.78Q120.57 77.16 124.48 74.87C127.08 73.35 129.59 71.66 132 69.82C135.5 72.74 139.09 75.31 142.77 77.54Q148.3 80.78 154.01 82.59Q154.77 82.59 155.15 82.3ZM117.34 7.43C118.35 8.38 118.86 9.97 118.86 12.19C118.86 13.65 118.54 15.14 117.91 16.67Q117.05 18.86 115.43 21.24Q113.91 23.52 111.81 25.91C110.41 27.49 108.92 29.11 107.33 30.76Q105.33 24.67 105.33 19.24C105.33 17.27 105.62 15.46 106.19 13.81Q107.05 11.33 108.29 9.62Q109.62 7.81 111.14 6.85Q112.76 5.9 114.19 5.9C115.33 5.9 116.38 6.41 117.34 7.43ZM122.77 61.15C125.31 63.82 127.94 66.33 130.67 68.68C126.67 71.98 122.32 74.62 117.62 76.58Q110.57 79.54 104.28 79.54Q101.84 79.54 99.52 79.02Q98.85 78.87 98.19 78.68Q96.14 78.09 94.41 76.99Q93.65 76.5 92.95 75.92C91.42 74.65 90.22 73.03 89.33 71.06Q87.9 68.01 87.9 63.82L87.9 63.82Q87.9 60.3 89.52 56.77Q91.04 53.15 93.52 49.63Q96 46.01 99.14 42.48Q102.38 38.86 105.62 35.34Q107.43 39.62 110 44.1Q112.67 48.48 115.81 52.77Q119.05 57.06 122.77 61.15Z" fill="#FFA55C" fill-opacity="1.000000" fill-rule="evenodd"/>
	<path id="Wake Bake" d="M39.16 26.32C39.28 26.22 39.35 26.09 39.35 25.93C39.35 25.74 39.24 25.55 39.01 25.36C38.79 25.13 38.56 25.02 38.34 25.02C37.57 25.02 36.84 25.44 36.13 26.27C35.46 27.07 34.85 28.06 34.31 29.24C33.8 30.4 33.38 31.63 33.06 32.94C32.77 34.25 32.63 35.4 32.63 36.4C32.63 37.77 32.68 39.28 32.77 40.91C32.9 42.51 33.03 44.17 33.16 45.9C33.28 47.6 33.4 49.31 33.49 51.04C33.62 52.76 33.68 54.44 33.68 56.08C33.68 57.9 33.59 59.61 33.4 61.21C33.2 62.78 32.85 64.17 32.34 65.39C31.83 66.57 31.12 67.5 30.23 68.17C29.33 68.87 28.18 69.23 26.77 69.23Q25.5 69.23 24.4 68.8Q24.17 68.71 23.94 68.6C23.11 68.22 22.34 67.68 21.64 66.97C20.96 66.27 20.36 65.45 19.81 64.52C19.27 63.56 18.79 62.52 18.37 61.4C18.98 59.2 19.43 56.94 19.71 54.64C20 52.3 20.15 50.08 20.15 47.96Q20.15 46 19.95 44.32C19.86 43.16 19.7 42.17 19.48 41.34C19.28 40.51 19.03 39.85 18.71 39.37C18.42 38.89 18.08 38.65 17.7 38.65C17.22 38.65 16.8 38.99 16.45 39.66C16.1 40.33 15.81 41.21 15.59 42.3C15.36 43.39 15.19 44.62 15.06 46C14.96 47.37 14.92 48.76 14.92 50.17Q14.92 53.05 15.44 56.46C15.8 58.73 16.34 60.88 17.08 62.89C16.72 63.98 16.32 64.99 15.88 65.92C15.46 66.84 14.98 67.64 14.44 68.32C13.89 69.02 13.3 69.56 12.66 69.95C12.02 70.33 11.32 70.52 10.55 70.52C9.52 70.52 8.63 70.24 7.86 69.66Q6.71 68.84 5.84 67.45C5.3 66.52 4.84 65.45 4.45 64.24C4.07 63.02 3.76 61.77 3.54 60.49Q3.2 58.52 3.06 56.56Q2.92 54.54 2.92 52.86Q2.92 50.7 3.01 48.44Q3.11 46.14 3.25 44.12C3.38 42.78 3.51 41.58 3.64 40.52C3.8 39.43 3.94 38.6 4.07 38.03C4.39 36.75 4.63 35.88 4.79 35.43C4.95 34.96 5.03 34.62 5.03 34.43C5.03 34.27 4.95 34.17 4.79 34.14C4.63 34.08 4.44 34.04 4.21 34.04C3.92 34.04 3.59 34.08 3.2 34.14C2.85 34.2 2.66 34.33 2.63 34.52C2.56 35.04 2.44 35.82 2.24 36.88Q1.96 38.46 1.67 40.67Q1.38 42.83 1.14 45.56Q0.95 48.25 1.04 51.28Q1.09 52.96 1.14 55.16Q1.24 57.32 1.48 59.63Q1.68 61.54 2.05 63.41Q2.12 63.75 2.2 64.09Q2.72 66.25 3.64 67.93C4.24 69.08 5.01 70.01 5.94 70.72C6.9 71.42 8.07 71.77 9.44 71.77C10.34 71.77 11.19 71.58 11.99 71.19C12.79 70.81 13.52 70.27 14.2 69.56C14.87 68.86 15.48 68.03 16.02 67.07C16.6 66.11 17.09 65.07 17.51 63.95C17.92 64.91 18.39 65.79 18.9 66.59C19.44 67.39 20.04 68.09 20.68 68.7C21.35 69.31 22.07 69.77 22.84 70.09C23.64 70.44 24.48 70.62 25.38 70.62C27.33 70.62 28.92 70.16 30.13 69.23C31.35 68.3 32.29 67.07 32.96 65.53C33.67 64 34.13 62.25 34.36 60.3C34.61 58.35 34.74 56.33 34.74 54.25C34.74 52.78 34.69 51.34 34.59 49.93C34.53 48.49 34.43 47.13 34.31 45.85C34.21 44.57 34.12 43.4 34.02 42.35C33.96 41.26 33.92 40.35 33.92 39.61C33.92 38.56 33.99 37.4 34.12 36.16C34.24 34.88 34.48 33.63 34.84 32.41C35.22 31.2 35.72 30.08 36.32 29.05C36.93 28.03 37.72 27.23 38.68 26.65Q38.96 26.46 39.16 26.32ZM164.46 57.95C165.35 56.12 165.8 54.43 165.8 52.86C165.8 51.8 165.58 50.83 165.13 49.93C164.71 49 164.04 48.2 163.11 47.53Q161.72 46.48 159.51 45.85C158.04 45.4 156.28 45.13 154.23 45.04Q156.39 42.88 157.64 40.38C158.51 38.68 158.94 37.05 158.94 35.48C158.94 34.52 158.75 33.61 158.36 32.75C157.98 31.88 157.35 31.15 156.49 30.54C155.63 29.9 154.51 29.4 153.13 29.05C151.79 28.67 150.14 28.48 148.19 28.48Q146.17 28.48 143 28.96C140.92 29.24 138.67 29.71 136.23 30.35C133.83 30.96 131.4 31.74 128.94 32.7C126.47 33.66 124.22 34.81 122.17 36.16C120.09 37.47 118.35 38.97 116.94 40.67Q115.54 42.35 114.88 44.28Q114.54 45.27 114.39 46.33C114.39 46.97 114.44 47.44 114.54 47.72C114.6 47.98 114.7 48.11 114.83 48.11Q114.97 48.11 115.11 47.87C115.21 47.68 115.26 47.45 115.26 47.2C115.26 45.18 115.88 43.34 117.13 41.68C118.38 40.01 119.99 38.52 121.98 37.21C123.96 35.9 126.17 34.75 128.6 33.75C131.03 32.76 133.42 31.95 135.75 31.31C138.12 30.64 140.31 30.14 142.33 29.82C144.38 29.5 145.98 29.34 147.13 29.34Q149.67 29.34 151.45 29.92C152.67 30.3 153.64 30.81 154.38 31.45C155.15 32.09 155.69 32.86 156.01 33.75C156.36 34.62 156.54 35.53 156.54 36.49C156.54 37.93 156.22 39.4 155.58 40.91C154.94 42.38 154.09 43.74 153.03 44.99L152.46 44.99C150.89 44.99 149.45 45.15 148.14 45.47C146.83 45.76 145.69 46.12 144.73 46.57C143.8 47.02 143.07 47.5 142.52 48.01C142.01 48.49 141.75 48.92 141.75 49.31C141.75 49.92 142.38 50.22 143.63 50.22C145.39 50.22 147.11 49.8 148.81 48.97C150.54 48.14 152.12 47.05 153.56 45.71C157.11 45.9 159.66 46.64 161.19 47.92Q162.56 49 163.13 50.4Q163.55 51.43 163.55 52.62C163.55 54.16 163.11 55.82 162.25 57.61C161.39 59.37 160.2 61.15 158.7 62.94C157.19 64.7 155.43 66.4 153.42 68.03C151.43 69.69 149.31 71.15 147.03 72.4C144.79 73.68 142.47 74.7 140.07 75.47C137.71 76.24 135.39 76.62 133.11 76.62C132.83 76.62 132.49 76.59 132.11 76.52C131.72 76.49 131.35 76.41 131 76.28C130.65 76.16 130.35 75.98 130.09 75.76C129.87 75.56 129.75 75.29 129.75 74.94C129.75 74.43 130.19 73.87 131.05 73.26C131.91 72.68 132.95 72.16 134.17 71.68C135.39 71.19 136.63 70.8 137.91 70.48C139.19 70.16 140.25 70 141.08 70L141.71 70C141.87 70 141.95 69.92 141.95 69.76C141.95 69.66 141.9 69.56 141.8 69.47Q141.66 69.32 141.37 69.32Q140.99 69.32 139.88 69.51Q138.78 69.76 137.29 70.14C136.33 70.4 135.32 70.7 134.27 71.05C133.21 71.4 132.23 71.8 131.34 72.25C130.44 72.7 129.71 73.18 129.13 73.69C128.55 74.24 128.27 74.8 128.27 75.37C128.27 75.79 128.43 76.11 128.75 76.33C129.07 76.59 129.45 76.76 129.9 76.86C130.35 76.99 130.83 77.07 131.34 77.1C131.88 77.13 132.38 77.15 132.83 77.15C135.51 77.15 138.2 76.76 140.89 76C143.58 75.26 146.14 74.25 148.57 72.97C151 71.69 153.27 70.22 155.39 68.56Q158.55 66.06 160.86 63.37Q163.16 60.68 164.46 57.95ZM90.35 59.78C90.18 60.1 89.98 60.4 89.75 60.68Q87.11 64.43 83.75 66.59C81.51 68 79.29 68.7 77.08 68.7C75.71 68.7 74.39 68.38 73.15 67.74C71.9 67.13 70.79 66.14 69.83 64.76C69.71 64.6 69.64 64.46 69.64 64.33C69.64 64.04 69.83 63.9 70.22 63.9C70.25 63.9 70.36 63.93 70.55 64C70.81 64 71.1 64.09 71.42 64.28C71.77 64.44 72.27 64.52 72.91 64.52C73.9 64.52 74.83 64.35 75.69 64C76.55 63.64 77.29 63.2 77.9 62.65C78.54 62.08 79.03 61.44 79.39 60.73C79.74 60 79.91 59.24 79.91 58.48C79.91 57.52 79.66 56.68 79.15 55.98C78.67 55.28 77.83 54.92 76.65 54.92C75.43 54.92 74.31 55.36 73.29 56.22Q71.75 57.47 70.51 59.29C69.71 60.48 69.02 61.74 68.44 63.08Q67.58 65.05 67.15 66.54C66.99 67.08 66.84 67.42 66.71 67.55C66.59 67.68 66.44 67.74 66.28 67.74C65.93 67.74 65.77 67.4 65.8 66.73C65.8 66.44 65.82 66.09 65.85 65.68C65.88 65.26 65.91 64.81 65.95 64.33C65.95 63.85 65.96 63.37 65.99 62.89C66.03 62.38 66.04 61.92 66.04 61.5C66.04 61.08 66.04 60.64 66.03 60.18C65.93 60.35 65.82 60.52 65.71 60.68C64.08 63.12 62.43 64.92 60.77 66.11C59.1 67.29 57.55 67.88 56.11 67.88C54.29 67.88 52.89 67.02 51.93 65.29C50.81 66.41 49.55 67.26 48.14 67.83C46.77 68.41 45.41 68.7 44.06 68.7C43.26 68.7 42.49 68.59 41.76 68.36C41.05 68.14 40.45 67.8 39.93 67.36C39.39 66.87 38.96 66.28 38.64 65.58C38.32 64.84 38.16 64 38.16 63.04C38.16 61.88 38.43 60.72 38.97 59.53C39.49 58.32 40.21 57.23 41.13 56.27C42.09 55.28 43.21 54.46 44.49 53.82Q45.01 53.56 45.54 53.37Q47.02 52.86 48.67 52.86C49.89 52.86 50.83 53.04 51.5 53.39C52.17 53.71 52.51 54.01 52.51 54.3C52.51 54.43 52.45 54.52 52.32 54.59C52.19 54.65 52.08 54.68 51.98 54.68C51.95 54.65 51.92 54.64 51.89 54.64L51.84 54.64C51.45 54.28 51.02 54.01 50.54 53.82C50.06 53.6 49.36 53.48 48.43 53.48C47.18 53.48 46.05 53.76 45.02 54.3C44.03 54.81 43.18 55.5 42.48 56.36C41.77 57.2 41.23 58.12 40.85 59.15C40.46 60.17 40.27 61.18 40.27 62.17C40.27 64.09 40.72 65.48 41.61 66.35C42.51 67.21 43.63 67.64 44.97 67.64C46.06 67.64 47.2 67.37 48.38 66.83C49.57 66.28 50.62 65.51 51.55 64.52C51.04 63.37 50.78 61.87 50.78 60.01Q50.78 58.19 51.45 56.84C51.9 55.95 52.54 55.5 53.37 55.5C54.53 55.5 55.1 56.17 55.1 57.52Q55.1 59.53 54.53 61.16C54.14 62.22 53.63 63.18 52.99 64.04C53.89 65.71 55.13 66.54 56.73 66.54C57.95 66.54 59.25 66.03 60.62 65C62.03 63.98 63.41 62.49 64.75 60.54Q65.23 59.82 65.61 59.05L65.61 59.05L66 58.28C65.98 57.73 65.97 57.15 65.95 56.56Q65.85 53.72 65.71 50.75C65.61 48.73 65.53 46.73 65.47 44.75C65.4 42.76 65.37 40.94 65.37 39.28Q65.37 37.31 65.66 35.48Q65.95 33.61 66.57 32.22C66.99 31.26 67.51 30.51 68.15 29.96C68.79 29.39 69.55 29.1 70.41 29.1C71.31 29.1 72.06 29.26 72.67 29.58C73.31 29.87 73.82 30.3 74.2 30.88C74.59 31.42 74.86 32.09 75.02 32.89C75.21 33.66 75.31 34.51 75.31 35.43C75.31 37.04 75.08 38.8 74.63 40.72C74.19 42.6 73.59 44.51 72.86 46.43Q71.75 49.31 70.31 52Q68.92 54.64 67.43 56.6C67.5 57.56 67.53 58.56 67.53 59.58C67.56 60.6 67.61 61.69 67.67 62.84C68.47 61.12 69.35 59.63 70.31 58.38C70.73 57.84 71.19 57.31 71.71 56.8C72.25 56.25 72.81 55.77 73.39 55.36C73.99 54.94 74.63 54.6 75.31 54.35C76.01 54.09 76.75 53.96 77.51 53.96C78.73 53.96 79.79 54.27 80.68 54.88C81.58 55.48 82.03 56.46 82.03 57.8C82.03 59.08 81.71 60.17 81.07 61.07C80.46 61.96 79.69 62.72 78.76 63.32C77.83 63.9 76.84 64.33 75.79 64.62C74.73 64.91 73.77 65.08 72.91 65.15C72.84 65.15 72.81 65.16 72.81 65.19C72.81 65.26 72.86 65.36 72.95 65.48Q73.91 66.59 75.11 67.07Q75.69 67.3 76.29 67.42Q76.94 67.55 77.61 67.55C78.67 67.55 79.74 67.36 80.83 66.97Q81.14 66.85 81.44 66.72Q82.74 66.17 83.95 65.39C84.94 64.72 85.85 63.96 86.68 63.13C87.55 62.27 88.25 61.4 88.79 60.54C89.11 60.06 89.4 59.56 89.66 59.05L90.43 57.52L90.44 57.52C90.51 57.04 90.62 56.56 90.76 56.08C91.05 55.12 91.43 54.25 91.91 53.48C92.42 52.72 93 52.09 93.64 51.61C94.31 51.13 95.02 50.89 95.75 50.89C96.94 50.89 97.8 51.24 98.34 51.95C98.89 52.62 99.16 53.48 99.16 54.54C99.16 55.98 98.71 57.55 97.82 59.24C96.95 60.91 95.7 62.46 94.07 63.9Q94.86 64.8 95.86 65.3Q97.15 65.96 98.78 65.96C100.22 65.96 101.72 65.53 103.29 64.67Q105.64 63.32 107.71 60.54C108.06 60.09 108.35 59.61 108.57 59.1C108.83 58.56 109.08 58.03 109.34 57.52L110.25 57.76C110.03 58.24 109.79 58.73 109.53 59.24C109.31 59.72 109.02 60.2 108.67 60.68C107.1 62.92 105.31 64.62 103.29 65.77C101.31 66.89 99.4 67.45 97.58 67.45C96.55 67.45 95.59 67.28 94.7 66.92C93.83 66.57 93.08 66.04 92.44 65.34C91.8 64.64 91.29 63.76 90.9 62.7C90.6 61.85 90.41 60.88 90.35 59.78ZM220.48 59.78C220.3 60.1 220.1 60.4 219.88 60.68Q217.24 64.43 213.88 66.59C211.64 68 209.42 68.7 207.21 68.7C205.83 68.7 204.52 68.38 203.27 67.74Q201.4 66.83 199.96 64.76C199.83 64.6 199.77 64.46 199.77 64.33C199.77 64.04 199.96 63.9 200.34 63.9C200.38 63.9 200.49 63.93 200.68 64C200.94 64 201.22 64.09 201.54 64.28C201.9 64.44 202.39 64.52 203.03 64.52C204.02 64.52 204.95 64.35 205.82 64C206.68 63.64 207.42 63.2 208.02 62.65C208.66 62.08 209.16 61.44 209.51 60.73C209.86 60 210.04 59.24 210.04 58.48Q210.04 57.4 209.61 56.53Q209.46 56.24 209.27 55.98C208.79 55.28 207.96 54.92 206.78 54.92C205.56 54.92 204.44 55.36 203.42 56.22C202.39 57.05 201.46 58.08 200.63 59.29Q199.43 61.07 198.57 63.08C197.99 64.4 197.56 65.55 197.27 66.54C197.11 67.08 196.97 67.42 196.84 67.55C196.71 67.68 196.57 67.74 196.41 67.74C196.06 67.74 195.9 67.4 195.93 66.73C195.93 66.44 195.94 66.09 195.98 65.68C196.01 65.26 196.04 64.81 196.07 64.33C196.07 63.85 196.09 63.37 196.12 62.89C196.15 62.38 196.17 61.92 196.17 61.5C196.17 61.08 196.16 60.64 196.16 60.18C196.06 60.35 195.95 60.52 195.84 60.68C194.2 63.12 192.56 64.92 190.89 66.11C189.23 67.29 187.68 67.88 186.24 67.88C184.41 67.88 183.02 67.02 182.06 65.29C180.94 66.41 179.68 67.26 178.27 67.83C176.89 68.41 175.53 68.7 174.19 68.7C173.39 68.7 172.62 68.59 171.88 68.36C171.18 68.14 170.57 67.8 170.06 67.36C169.52 66.87 169.08 66.28 168.76 65.58C168.44 64.84 168.28 64 168.28 63.04Q168.28 61.31 169.1 59.53C169.61 58.32 170.33 57.23 171.26 56.27C172.22 55.28 173.34 54.46 174.62 53.82C175.9 53.18 177.29 52.86 178.8 52.86C180.01 52.86 180.96 53.04 181.63 53.39C182.3 53.71 182.64 54.01 182.64 54.3C182.64 54.43 182.57 54.52 182.44 54.59C182.32 54.65 182.2 54.68 182.11 54.68Q182.06 54.64 182.01 54.64L181.96 54.64C181.58 54.28 181.15 54.01 180.67 53.82C180.19 53.6 179.48 53.48 178.56 53.48Q177.04 53.48 175.75 54.02Q175.44 54.14 175.15 54.3C174.16 54.81 173.31 55.5 172.6 56.36C171.9 57.2 171.36 58.12 170.97 59.15C170.59 60.17 170.4 61.18 170.4 62.17C170.4 64.09 170.84 65.48 171.74 66.35C172.64 67.21 173.76 67.64 175.1 67.64C176.19 67.64 177.32 67.37 178.51 66.83C179.69 66.28 180.75 65.51 181.68 64.52Q180.91 62.8 180.91 60.01Q180.91 58.19 181.58 56.84Q182.03 55.95 182.73 55.65Q183.08 55.5 183.5 55.5C184.65 55.5 185.23 56.17 185.23 57.52C185.23 58.86 185.04 60.08 184.65 61.16C184.27 62.22 183.76 63.18 183.12 64.04Q184 65.68 185.33 66.24Q186.03 66.54 186.86 66.54C188.08 66.54 189.37 66.03 190.75 65C192.16 63.98 193.53 62.49 194.88 60.54C195.2 60.06 195.48 59.56 195.74 59.05L196.12 58.28C196.11 57.73 196.09 57.15 196.07 56.56C196.01 54.67 195.93 52.73 195.83 50.75Q195.69 47.72 195.59 44.75Q195.5 41.77 195.5 39.28C195.5 37.96 195.59 36.7 195.78 35.48Q196.07 33.61 196.7 32.22C197.11 31.26 197.64 30.51 198.28 29.96C198.92 29.39 199.67 29.1 200.54 29.1Q201.88 29.1 202.79 29.58C203.43 29.87 203.94 30.3 204.33 30.88C204.71 31.42 204.98 32.09 205.14 32.89C205.34 33.66 205.43 34.51 205.43 35.43Q205.43 37.84 204.76 40.72C204.31 42.6 203.72 44.51 202.98 46.43C202.25 48.35 201.4 50.2 200.44 52C199.51 53.76 198.55 55.29 197.56 56.6Q197.66 58.04 197.66 59.58C197.69 60.6 197.74 61.69 197.8 62.84C198.6 61.12 199.48 59.63 200.44 58.38C200.86 57.84 201.32 57.31 201.83 56.8C202.38 56.25 202.94 55.77 203.51 55.36C204.12 54.94 204.76 54.6 205.43 54.35C206.14 54.09 206.87 53.96 207.64 53.96C208.86 53.96 209.91 54.27 210.81 54.88C211.7 55.48 212.15 56.46 212.15 57.8C212.15 59.08 211.83 60.17 211.19 61.07C210.58 61.96 209.82 62.72 208.89 63.32C207.96 63.9 206.97 64.33 205.91 64.62C204.86 64.91 203.9 65.08 203.03 65.15C202.97 65.15 202.94 65.16 202.94 65.19C202.94 65.26 202.98 65.36 203.08 65.48C203.72 66.22 204.44 66.75 205.24 67.07Q205.82 67.3 206.42 67.42Q207.06 67.55 207.74 67.55C208.79 67.55 209.86 67.36 210.95 66.97C212.04 66.56 213.08 66.03 214.07 65.39C215.06 64.72 215.98 63.96 216.81 63.13C217.67 62.27 218.38 61.4 218.92 60.54C219.24 60.06 219.53 59.56 219.78 59.05L220.55 57.52L220.56 57.52C220.63 57.04 220.74 56.56 220.89 56.08C221.17 55.12 221.56 54.25 222.04 53.48Q222.81 52.33 223.77 51.61C224.44 51.13 225.14 50.89 225.88 50.89Q227.36 50.89 228.18 51.63Q228.34 51.78 228.47 51.95C229.01 52.62 229.29 53.48 229.29 54.54Q229.29 56.7 227.94 59.24C227.08 60.91 225.83 62.46 224.2 63.9C225.41 65.28 226.98 65.96 228.9 65.96C230.34 65.96 231.85 65.53 233.41 64.67Q235.77 63.32 237.83 60.54C238.18 60.09 238.47 59.61 238.69 59.1C238.95 58.56 239.21 58.03 239.46 57.52L240.37 57.76C240.15 58.24 239.91 58.73 239.65 59.24C239.43 59.72 239.14 60.2 238.79 60.68C237.22 62.92 235.43 64.62 233.41 65.77C231.43 66.89 229.53 67.45 227.7 67.45C226.68 67.45 225.72 67.28 224.82 66.92C223.96 66.57 223.21 66.04 222.57 65.34C221.93 64.64 221.41 63.76 221.03 62.7Q220.57 61.43 220.48 59.78ZM73.05 31.93C73.66 33.02 73.96 34.48 73.96 36.3C73.96 37.74 73.79 39.31 73.43 41C73.11 42.7 72.65 44.41 72.04 46.14C71.47 47.84 70.78 49.5 69.98 51.13C69.18 52.73 68.31 54.16 67.39 55.4C67.32 53.9 67.26 52.43 67.19 50.99C67.13 49.55 67.07 48.06 67 46.52C66.97 44.99 66.94 43.36 66.91 41.63C66.87 39.9 66.86 37.98 66.86 35.87C66.86 35.1 66.94 34.38 67.1 33.71C67.26 33.04 67.48 32.44 67.77 31.93C68.06 31.42 68.39 31.02 68.78 30.73C69.19 30.41 69.64 30.25 70.12 30.25C71.5 30.25 72.47 30.81 73.05 31.93ZM203.18 31.93C203.78 33.02 204.09 34.48 204.09 36.3C204.09 37.74 203.91 39.31 203.56 41C203.24 42.7 202.78 44.41 202.17 46.14C201.59 47.84 200.9 49.5 200.1 51.13C199.3 52.73 198.44 54.16 197.51 55.4C197.45 53.9 197.38 52.43 197.32 50.99C197.26 49.55 197.19 48.06 197.13 46.52Q197.08 44.22 197.03 41.63C197 39.9 196.98 37.98 196.98 35.87C196.98 35.1 197.06 34.38 197.22 33.71C197.38 33.04 197.61 32.44 197.9 31.93C198.18 31.42 198.52 31.02 198.9 30.73C199.32 30.41 199.77 30.25 200.25 30.25C201.62 30.25 202.6 30.81 203.18 31.93ZM140.27 66.44C140.33 66.25 140.36 65.93 140.36 65.48C140.36 63.18 140.33 60.73 140.27 58.14C140.23 55.55 140.19 52.91 140.12 50.22L140.03 42.16C139.99 39.43 139.98 36.8 139.98 34.24C139.98 34.01 139.9 33.82 139.74 33.66C139.61 33.5 139.42 33.42 139.16 33.42C138.94 33.48 138.75 33.56 138.59 33.66C138.43 33.75 138.35 33.93 138.35 34.19C138.35 34.41 138.36 35.31 138.39 36.88Q138.44 39.23 138.49 43.26C138.55 45.92 138.6 49.07 138.63 52.72C138.7 56.36 138.75 60.4 138.78 64.81C138.78 66.16 139.1 66.8 139.74 66.73C140.03 66.73 140.2 66.64 140.27 66.44ZM18.85 42.78C19.11 44.09 19.24 45.74 19.24 47.72C19.24 49.55 19.12 51.55 18.9 53.72C18.68 55.87 18.34 57.96 17.89 60.01C17.25 58.06 16.8 56.04 16.55 53.96C16.29 51.85 16.16 49.88 16.16 48.06Q16.16 46.52 16.26 45.23C16.36 44.33 16.47 43.56 16.6 42.92C16.76 42.25 16.95 41.74 17.17 41.39C17.4 41 17.64 40.81 17.89 40.81Q17.92 40.81 17.95 40.82Q18.53 40.9 18.85 42.78ZM148.43 46.04C149.51 45.79 150.65 45.66 151.83 45.66L152.41 45.66C151.29 46.84 150.03 47.8 148.62 48.54C147.24 49.28 145.79 49.64 144.25 49.64C143.35 49.64 142.91 49.45 142.91 49.07C142.91 48.78 143.15 48.44 143.63 48.06C144.14 47.68 144.79 47.31 145.59 46.96Q146.84 46.43 148.43 46.04ZM97.43 52.67C97.88 53.21 98.1 53.92 98.1 54.78C98.1 55.45 97.99 56.17 97.77 56.94C97.54 57.71 97.22 58.48 96.81 59.24C96.42 60.01 95.96 60.75 95.42 61.45C94.87 62.16 94.26 62.78 93.59 63.32C93.08 62.62 92.68 61.8 92.39 60.88C92.14 59.92 92.01 58.83 92.01 57.61C92.01 56.84 92.09 56.11 92.25 55.4C92.41 54.7 92.63 54.09 92.92 53.58C93.21 53.04 93.56 52.6 93.98 52.28C94.39 51.96 94.86 51.8 95.37 51.8C96.33 51.8 97.02 52.09 97.43 52.67ZM227.56 52.67C228.01 53.21 228.23 53.92 228.23 54.78C228.23 55.45 228.12 56.17 227.89 56.94C227.67 57.71 227.35 58.48 226.93 59.24C226.55 60.01 226.09 60.75 225.54 61.45C225 62.16 224.39 62.78 223.72 63.32C223.21 62.62 222.81 61.8 222.52 60.88C222.26 59.92 222.13 58.83 222.13 57.61Q222.13 56.46 222.37 55.4C222.53 54.7 222.76 54.09 223.05 53.58C223.33 53.04 223.69 52.6 224.1 52.28C224.52 51.96 224.98 51.8 225.49 51.8C226.45 51.8 227.14 52.09 227.56 52.67ZM54.09 56.65C54.25 56.94 54.33 57.32 54.33 57.8C54.33 58.83 54.17 59.8 53.85 60.73C53.57 61.66 53.15 62.49 52.61 63.23Q51.84 61.5 51.69 58.96C51.66 58.16 51.79 57.5 52.08 56.99C52.37 56.44 52.78 56.17 53.33 56.17C53.68 56.17 53.93 56.33 54.09 56.65ZM184.22 56.65C184.38 56.94 184.46 57.32 184.46 57.8C184.46 58.83 184.3 59.8 183.98 60.73C183.69 61.66 183.28 62.49 182.73 63.23Q181.96 61.5 181.82 58.96C181.79 58.16 181.92 57.5 182.2 56.99Q182.47 56.49 182.88 56.29Q183.14 56.17 183.45 56.17C183.8 56.17 184.06 56.33 184.22 56.65Z" fill="#1F1711" fill-opacity="1.000000" fill-rule="evenodd"/>
</svg>
